<svg id="Icons" height="512" viewBox="0 0 74 74" width="512" xmlns="http://www.w3.org/2000/svg"><path d="m45.732 16.584h-17.464a1 1 0 0 1 -1-1v-9.695a1 1 0 0 1 1-1h17.464a1 1 0 0 1 1 1v9.7a1 1 0 0 1 -1 .995zm-16.464-2h15.464v-7.695h-15.464z"/><path d="m71 46.8h-17.465a1 1 0 0 1 -1-1v-9.7a1 1 0 0 1 1-1h17.465a1 1 0 0 1 1 1v9.7a1 1 0 0 1 -1 1zm-16.465-2h15.465v-7.7h-15.465z"/><path d="m45.732 46.8h-17.464a1 1 0 0 1 -1-1v-9.7a1 1 0 0 1 1-1h17.464a1 1 0 0 1 1 1v9.7a1 1 0 0 1 -1 1zm-16.464-2h15.464v-7.7h-15.464z"/><path d="m20.465 46.8h-17.465a1 1 0 0 1 -1-1v-9.7a1 1 0 0 1 1-1h17.465a1 1 0 0 1 1 1v9.7a1 1 0 0 1 -1 1zm-16.465-2h15.465v-7.7h-15.465z"/><path d="m37.83 69.11h-1.89a1 1 0 0 1 0-2h1.89a1 1 0 0 1 0 2z"/><path d="m45.73 69.11h-3.33a1 1 0 1 1 0-2h2.33v-7.69h-15.46v7.69h2.1a1 1 0 0 1 0 2h-3.1a1 1 0 0 1 -1-1v-9.69a1 1 0 0 1 1-1h17.46a1 1 0 0 1 1 1v9.69a1 1 0 0 1 -1 1z"/><path d="m37 59.421a1 1 0 0 1 -1-1v-12.621a1 1 0 1 1 2 0v12.621a1 1 0 0 1 -1 1z"/><path d="m37 37.106a1 1 0 0 1 -1-1v-20.527a1 1 0 0 1 2 0v20.527a1 1 0 0 1 -1 1z"/><path d="m62.268 37.1a1 1 0 0 1 -1-1v-9.821h-48.768v9.821a1 1 0 0 1 -2 0v-10.821a1 1 0 0 1 1-1h50.768a1 1 0 0 1 1 1v10.821a1 1 0 0 1 -1 1z"/></svg>