<svg id="Icons" height="512" viewBox="0 0 74 74" width="512" xmlns="http://www.w3.org/2000/svg"><path d="m66.5 27.837h-50.265a1 1 0 0 1 -.991-.873l-1.355-10.577a1 1 0 0 1 .992-1.127h8.131a1 1 0 0 1 0 2h-7l1.1 8.577h48.248l-1.1-8.577h-7.25a1 1 0 1 1 0-2h8.13a1 1 0 0 1 .992.873l1.356 10.577a1 1 0 0 1 -.992 1.127z"/><path d="m51.837 17.26h-23.651a1 1 0 1 1 0-2h23.651a1 1 0 0 1 0 2z"/><path d="m52.49 63.01h-2.97a1 1 0 0 1 0-2h2.97a1 1 0 0 1 0 2z"/><path d="m71 63.01h-11.51a1 1 0 0 1 0-2h10.374l-4.244-33.17h-48.244l4.245 33.17h10.989a1 1 0 0 1 0 2h-11.87a1 1 0 0 1 -.991-.873l-4.5-35.17a1 1 0 0 1 .991-1.127h50.26a1 1 0 0 1 .992.873l4.5 35.17a1 1 0 0 1 -.992 1.127z"/><path d="m42.52 63.01h-2.91a1 1 0 0 1 0-2h2.91a1 1 0 0 1 0 2z"/><path d="m57.061 21.809h-4.108a1.631 1.631 0 0 1 -1.593-1.4l-.994-7.766a1.458 1.458 0 0 1 1.457-1.658h4.108a1.629 1.629 0 0 1 1.592 1.4l.995 7.766a1.457 1.457 0 0 1 -1.457 1.657zm-3.761-2h3.158l-.875-6.826h-3.157z"/><path d="m28.235 21.809h-4.109a1.63 1.63 0 0 1 -1.592-1.4l-.994-7.769a1.457 1.457 0 0 1 1.46-1.657h4.108a1.629 1.629 0 0 1 1.592 1.4l1 7.766a1.458 1.458 0 0 1 -1.457 1.657zm-3.761-2h3.158l-.875-6.826h-3.157z"/><path d="m60.971 38.443h-3.777a1.867 1.867 0 0 1 -1.825-1.608l-.481-3.758a1.634 1.634 0 0 1 1.636-1.863h3.776a1.869 1.869 0 0 1 1.825 1.608l.481 3.759a1.633 1.633 0 0 1 -1.636 1.862zm-3.637-2h3.239l-.413-3.229h-3.239z"/><path d="m50.065 38.443h-3.776a1.867 1.867 0 0 1 -1.826-1.609l-.481-3.757a1.636 1.636 0 0 1 1.638-1.862h3.78a1.869 1.869 0 0 1 1.825 1.609l.481 3.758a1.633 1.633 0 0 1 -1.637 1.862zm-3.636-2h3.239l-.414-3.229h-3.238z"/><path d="m39.16 38.443h-3.777a1.867 1.867 0 0 1 -1.825-1.608l-.481-3.758a1.634 1.634 0 0 1 1.636-1.863h3.777a1.868 1.868 0 0 1 1.825 1.609l.481 3.758a1.633 1.633 0 0 1 -1.636 1.862zm-3.637-2h3.24l-.414-3.229h-3.239z"/><path d="m62.2 48.037h-3.778a1.869 1.869 0 0 1 -1.822-1.608l-.481-3.759a1.633 1.633 0 0 1 1.636-1.862h3.777a1.867 1.867 0 0 1 1.825 1.608l.481 3.759a1.633 1.633 0 0 1 -1.638 1.862zm-3.636-2h3.236l-.413-3.229h-3.237z"/><path d="m51.293 48.037h-3.776a1.868 1.868 0 0 1 -1.826-1.609l-.481-3.758a1.636 1.636 0 0 1 1.637-1.862h3.777a1.868 1.868 0 0 1 1.825 1.609l.481 3.758a1.634 1.634 0 0 1 -1.637 1.862zm-3.635-2h3.242l-.413-3.229h-3.243z"/><path d="m40.388 48.037h-3.777a1.869 1.869 0 0 1 -1.825-1.608l-.481-3.758a1.633 1.633 0 0 1 1.637-1.863h3.776a1.867 1.867 0 0 1 1.825 1.608l.482 3.759a1.634 1.634 0 0 1 -1.637 1.862zm-3.636-2h3.239l-.413-3.229h-3.239z"/><path d="m29.482 48.037h-3.776a1.868 1.868 0 0 1 -1.826-1.609l-.48-3.758a1.636 1.636 0 0 1 1.637-1.862h3.777a1.868 1.868 0 0 1 1.825 1.608l.481 3.759a1.633 1.633 0 0 1 -1.637 1.862zm-3.635-2h3.238l-.413-3.229h-3.239z"/><path d="m52.522 57.631h-3.777a1.868 1.868 0 0 1 -1.825-1.61l-.481-3.757a1.636 1.636 0 0 1 1.637-1.864h3.777a1.869 1.869 0 0 1 1.825 1.61l.481 3.757a1.635 1.635 0 0 1 -1.637 1.863zm-3.636-2h3.239l-.414-3.23h-3.238z"/><path d="m41.617 57.631h-3.777a1.868 1.868 0 0 1 -1.825-1.609l-.481-3.757a1.635 1.635 0 0 1 1.636-1.865h3.777a1.87 1.87 0 0 1 1.825 1.609l.481 3.758a1.633 1.633 0 0 1 -1.636 1.863zm-3.635-2h3.239l-.413-3.23h-3.241z"/><path d="m30.711 57.631h-3.777a1.868 1.868 0 0 1 -1.825-1.61l-.481-3.757a1.636 1.636 0 0 1 1.637-1.864h3.777a1.869 1.869 0 0 1 1.825 1.61l.481 3.757a1.633 1.633 0 0 1 -1.637 1.863zm-3.636-2h3.239l-.414-3.231h-3.238z"/><path d="m20.738 63.009a1.006 1.006 0 0 1 -.509-.139l-7.506-4.447-8.434 2.544a1 1 0 0 1 -1.259-1.2l10.881-43.748a1 1 0 0 1 1.94.482l-10.451 42.043 7.171-2.162a1 1 0 0 1 .8.1l7.884 4.67a1 1 0 0 1 -.511 1.86z"/></svg>