<svg id="Icons" height="512" viewBox="0 0 74 74" width="512" xmlns="http://www.w3.org/2000/svg"><path d="m41.24 72h-2.97a1 1 0 0 1 0-2h2.97a1 1 0 1 1 0 2z"/><path d="m69 72h-20.76a1 1 0 0 1 0-2h20.76a1 1 0 0 0 1-1v-64a1 1 0 0 0 -1-1h-64a1 1 0 0 0 -1 1v64a1 1 0 0 0 1 1h16.37a1 1 0 1 1 0 2h-16.37a3 3 0 0 1 -3-3v-64a3 3 0 0 1 3-3h64a3 3 0 0 1 3 3v64a3 3 0 0 1 -3 3z"/><path d="m31.27 72h-2.9a1 1 0 0 1 0-2h2.9a1 1 0 1 1 0 2z"/><path d="m11.069 15.188a3.625 3.625 0 1 1 3.625-3.626 3.629 3.629 0 0 1 -3.625 3.626zm0-5.25a1.625 1.625 0 1 0 1.625 1.624 1.627 1.627 0 0 0 -1.625-1.624z"/><path d="m21.319 15.188a3.625 3.625 0 1 1 3.625-3.626 3.629 3.629 0 0 1 -3.625 3.626zm0-5.25a1.625 1.625 0 1 0 1.625 1.624 1.627 1.627 0 0 0 -1.625-1.624z"/><path d="m31.569 15.188a3.625 3.625 0 1 1 3.625-3.626 3.629 3.629 0 0 1 -3.625 3.626zm0-5.25a1.625 1.625 0 1 0 1.625 1.624 1.627 1.627 0 0 0 -1.625-1.624z"/><path d="m71 20h-68a1 1 0 0 1 0-2h68a1 1 0 0 1 0 2z"/><path d="m31.629 59a.983.983 0 0 1 -.388-.079 1 1 0 0 1 -.534-1.309l10.95-26a1 1 0 0 1 1.844.776l-10.95 26a1 1 0 0 1 -.922.612z"/><path d="m46.274 53.308a1 1 0 0 1 -.626-1.781l7.37-5.9-7.118-5.663a1 1 0 1 1 1.239-1.564l8.1 6.443a1 1 0 0 1 0 1.563l-8.339 6.683a1 1 0 0 1 -.626.219z"/><path d="m27.726 53.308a1 1 0 0 1 -.624-.219l-8.348-6.689a1 1 0 0 1 0-1.563l8.1-6.443a1 1 0 1 1 1.244 1.566l-7.123 5.662 7.37 5.9a1 1 0 0 1 -.626 1.781z"/></svg>