<?xml version="1.0" encoding="UTF-8"?>
<svg xmlns="http://www.w3.org/2000/svg" id="Icons" viewBox="0 0 74 74" width="512" height="512"><path d="M56.671,55.16a.98.98,0,0,1-.161-.013A1,1,0,0,1,55.683,54a18.132,18.132,0,0,0,.227-2.87,1,1,0,1,1,2,0,20.035,20.035,0,0,1-.253,3.19A1,1,0,0,1,56.671,55.16Z"/><path d="M37,72a20.91,20.91,0,0,1-9.284-39.646,20.913,20.913,0,0,1,18.571,0,20.815,20.815,0,0,1,9.975,10.6,1,1,0,1,1-1.844.776A18.8,18.8,0,0,0,45.4,34.147a18.907,18.907,0,0,0-16.79,0A18.91,18.91,0,0,0,37,70a19.008,19.008,0,0,0,8.852-2.194,1,1,0,0,1,.936,1.768A21.015,21.015,0,0,1,37,72Z"/><path d="M52.709,64.31a1,1,0,0,1-.781-1.623,16.912,16.912,0,0,0,1.586-2.379,1,1,0,1,1,1.752.964,18.926,18.926,0,0,1-1.774,2.662A1,1,0,0,1,52.709,64.31Z"/><path d="M45.84,34.25a1,1,0,0,1-1-1V26.173l-5.311-.03H29.2L29.16,33.25a1,1,0,0,1-2,0V26.173a2.038,2.038,0,0,1,2.041-2.03H44.8a2.038,2.038,0,0,1,2.041,2.03V33.25A1,1,0,0,1,45.84,34.25Z"/><path d="M41.638,26.144H39.521a1,1,0,0,1,0-2h1.487L50.65,4H45.711L37.757,20.018a1,1,0,1,1-1.791-.89L44.2,2.555a1,1,0,0,1,.9-.555h7.147a1,1,0,0,1,.9,1.432L42.54,25.576A1,1,0,0,1,41.638,26.144Z"/><path d="M39.523,26.144H32.366a1,1,0,0,1-.9-.568L20.856,3.434A1,1,0,0,1,21.758,2h7.158a1,1,0,0,1,.9.568L40.425,24.712a1,1,0,0,1-.9,1.432Zm-6.527-2h4.94L28.286,4h-4.94Z"/><path d="M42.992,60.342a1.008,1.008,0,0,1-.465-.114L37,57.322l-5.527,2.906a1,1,0,0,1-1.451-1.055l1.056-6.154L26.606,48.66a1,1,0,0,1,.555-1.706l6.179-.9,2.763-5.6a1.041,1.041,0,0,1,1.794,0l2.763,5.6,6.179.9a1,1,0,0,1,.555,1.706l-4.472,4.359,1.056,6.154a1,1,0,0,1-.986,1.169ZM37,55.192a.991.991,0,0,1,.465.115l4.2,2.207-.8-4.676a1,1,0,0,1,.288-.885l3.4-3.311-4.694-.682a1,1,0,0,1-.754-.547L37,43.159l-2.1,4.254a1,1,0,0,1-.754.547l-4.694.682,3.4,3.311a1,1,0,0,1,.288.885l-.8,4.676,4.2-2.207A.991.991,0,0,1,37,55.192Z"/></svg>
