<svg id="Icons" height="512" viewBox="0 0 74 74" width="512" xmlns="http://www.w3.org/2000/svg"><path d="m64.547 66.708h-49.797a1 1 0 0 1 -1-1v-62.708a1 1 0 0 1 1-1h49.8a1 1 0 0 1 1 1v62.708a1 1 0 0 1 -1.003 1zm-48.8-2h47.8v-60.708h-47.797z"/><path d="m9.45 24.56a1 1 0 0 1 -1-1v-15.26a1 1 0 0 1 1-1h5.3a1 1 0 0 1 0 2h-4.3v14.26a1 1 0 0 1 -1 1z"/><path d="m9.45 44.44a1 1 0 0 1 -1-1v-2.91a1 1 0 1 1 2 0v2.91a1 1 0 0 1 -1 1z"/><path d="m59.25 72h-49.8a1 1 0 0 1 -1-1v-20.56a1 1 0 0 1 2 0v19.56h47.8v-4.29a1 1 0 0 1 2-.01v5.3a1 1 0 0 1 -1 1z"/><path d="m9.45 34.53a1 1 0 0 1 -1-1v-2.97a1 1 0 0 1 2 0v2.97a1 1 0 0 1 -1 1z"/><path d="m25.854 29.129a1 1 0 0 1 -.708-1.707l10.412-10.412a1.029 1.029 0 0 1 1.414 0l5.019 5.02 10.745-10.746a1 1 0 1 1 1.414 1.416l-11.45 11.451a1.029 1.029 0 0 1 -1.414 0l-5.019-5.02-9.7 9.7a1 1 0 0 1 -.713.298z"/><path d="m53.443 18.489a1 1 0 0 1 -1-1v-4.5h-4.5a1 1 0 0 1 0-2h5.5a1 1 0 0 1 1 1v5.5a1 1 0 0 1 -1 1z"/><path d="m58.553 39.273h-37.809a1 1 0 0 1 0-2h37.809a1 1 0 0 1 0 2z"/><path d="m58.553 48.5h-37.809a1 1 0 0 1 0-2h37.809a1 1 0 0 1 0 2z"/><path d="m58.553 57.716h-37.809a1 1 0 0 1 0-2h37.809a1 1 0 0 1 0 2z"/></svg>